# xmcd
#
# Track frame offsets:
# 150
# 17407
# 32169
# 43410
# 56885
# 69985
# 87062
# 102490
# 116810
# 130352
# 144617
# 165112
# 178727
# 193732
# 201490
#
# Disc length: 2845 seconds
#
#
# Revision: 0
# Processed by: cddbd v1.5.1PL0 Copyright (c) Steve Scherf et al.
# Submitted via: FreeRIP 2.80 
#
DISCID=dc0b1b0f
DTITLE=RCMP Country Rock Band - Heart to Heart 
DYEAR=1999
DGENRE=Country
TTITLE0=Be careful what you wish for
TTITLE1=Heart to Heart
TTITLE2=Take these chains
TTITLE3=I fall to pieces
TTITLE4=Who's Counting...I am
TTITLE5=Someday soon
TTITLE6=I just want to dance with you
TTITLE7=You made a blue moon
TTITLE8=Walk on by
TTITLE9=Who'se the new love
TTITLE10=Devil Woman
TTITLE11=La Bamba
TTITLE12=Rosie can rock
TTITLE13=My mountain high yodel song
TTITLE14=Tender when I want to be
EXTD=
EXTT0=
EXTT1=
EXTT2=
EXTT3=
EXTT4=
EXTT5=
EXTT6=
EXTT7=
EXTT8=
EXTT9=
EXTT10=
EXTT11=
EXTT12=
EXTT13=
EXTT14=
PLAYORDER=
